<?xml version="1.0" encoding="UTF-8" standalone="no"?>
<svg width="413px" height="552px" viewBox="0 0 413 552" version="1.1" xmlns="http://www.w3.org/2000/svg" xmlns:xlink="http://www.w3.org/1999/xlink">
    <!-- Generator: Sketch 3.8.3 (29802) - http://www.bohemiancoding.com/sketch -->
    <title>Tepee-v0.2</title>
    <desc>Created with Sketch.</desc>
    <defs></defs>
    <g id="Page-1" stroke="none" stroke-width="1" fill="none" fill-rule="evenodd">
        <g id="Tepee-v0.2">
            <path d="M57,442.49 L57,437.979 L68.655,437.979 L68.655,422.134 L73.811,421.597 L73.811,437.979 L92.396,437.979 L92.396,442.49 L73.811,442.49 L73.811,475.63 C73.811,477.636 73.936,479.336 74.188,480.732 C74.438,482.129 74.913,483.418 75.611,484.6 C76.309,485.781 77.338,486.668 78.699,487.258 C80.06,487.85 81.761,488.145 83.802,488.145 C86.38,488.145 89.173,487.411 92.181,485.942 L94.061,490.347 C90.336,492.173 86.917,493.086 83.802,493.086 C78.287,493.086 74.384,491.601 72.093,488.628 C69.801,485.656 68.655,481.323 68.655,475.63 L68.655,442.49 L57,442.49" id="Fill-1" fill="#B76140"></path>
            <path d="M107.273,462.954 L151.316,462.954 C151.28,456.33 149.269,451.191 145.281,447.539 C141.293,443.887 135.974,442.061 129.322,442.061 C123.528,442.061 118.557,443.923 114.409,447.647 C110.259,451.371 107.881,456.474 107.273,462.954 L107.273,462.954 Z M101.687,465.156 C101.687,459.857 102.924,455.05 105.397,450.734 C107.87,446.42 111.213,443.072 115.424,440.691 C119.635,438.31 124.268,437.119 129.322,437.119 C132.427,437.119 135.373,437.495 138.157,438.247 C140.942,438.999 143.531,440.181 145.923,441.792 C148.314,443.403 150.331,445.391 151.974,447.754 C153.616,450.046 154.812,452.91 155.562,456.348 C156.061,458.604 156.312,461.003 156.312,463.545 C156.312,464.87 156.24,466.249 156.099,467.681 L107.273,467.681 C107.81,473.908 110.161,478.841 114.328,482.477 C118.494,486.112 123.493,487.93 129.322,487.93 C133.077,487.93 136.788,487.192 140.453,485.716 C144.119,484.24 146.936,482.206 148.903,479.613 L152.751,482.746 C150.214,486.051 146.809,488.601 142.537,490.395 C138.266,492.189 133.86,493.086 129.322,493.086 C124.196,493.086 119.555,491.977 115.397,489.756 C111.24,487.536 107.915,484.286 105.424,480.008 C102.933,475.729 101.687,470.778 101.687,465.156 L101.687,465.156 Z" id="Fill-2" fill="#B76140"></path>
            <path d="M175.701,465.264 C175.701,471.889 177.804,477.357 182.012,481.672 C186.219,485.987 191.456,488.145 197.723,488.145 C201.912,488.145 205.653,487.313 208.948,485.647 C212.242,483.982 214.892,481.386 216.897,477.859 C218.902,474.332 219.905,470.098 219.905,465.156 C219.905,457.816 217.828,452.186 213.675,448.264 C209.521,444.344 204.203,442.383 197.723,442.383 C191.385,442.383 186.129,444.531 181.958,448.828 C177.787,453.125 175.701,458.604 175.701,465.264 L175.701,465.264 Z M170.115,515 L170.115,437.979 L175.379,437.979 L175.379,450.869 C177.561,446.68 180.717,443.358 184.849,440.906 C188.979,438.453 193.657,437.227 198.879,437.227 C206.533,437.514 212.847,440.127 217.818,445.068 C222.79,450.01 225.276,456.706 225.276,465.156 C225.276,469.597 224.562,473.615 223.132,477.215 C221.702,480.813 219.737,483.776 217.235,486.104 C214.733,488.432 211.821,490.213 208.498,491.447 C205.174,492.684 201.583,493.301 197.723,493.301 C192.96,493.301 188.592,492.155 184.617,489.863 C180.643,487.572 177.527,484.224 175.271,479.819 L175.271,515 L170.115,515 L170.115,515 Z" id="Fill-3" fill="#B76140"></path>
            <path d="M240.96,462.954 L285.003,462.954 C284.967,456.33 282.955,451.191 278.967,447.539 C274.979,443.887 269.66,442.061 263.008,442.061 C257.214,442.061 252.243,443.923 248.095,447.647 C243.946,451.371 241.567,456.474 240.96,462.954 L240.96,462.954 Z M235.374,465.156 C235.374,459.857 236.61,455.05 239.083,450.734 C241.557,446.42 244.899,443.072 249.11,440.691 C253.322,438.31 257.954,437.119 263.008,437.119 C266.113,437.119 269.06,437.495 271.844,438.247 C274.628,438.999 277.218,440.181 279.609,441.792 C282.001,443.403 284.018,445.391 285.66,447.754 C287.303,450.046 288.498,452.91 289.249,456.348 C289.748,458.604 289.998,461.003 289.998,463.545 C289.998,464.87 289.927,466.249 289.786,467.681 L240.96,467.681 C241.496,473.908 243.848,478.841 248.015,482.477 C252.181,486.112 257.179,487.93 263.008,487.93 C266.763,487.93 270.475,487.192 274.14,485.716 C277.806,484.24 280.622,482.206 282.589,479.613 L286.438,482.746 C283.9,486.051 280.495,488.601 276.224,490.395 C271.952,492.189 267.547,493.086 263.008,493.086 C257.882,493.086 253.241,491.977 249.084,489.756 C244.926,487.536 241.602,484.286 239.11,480.008 C236.62,475.729 235.374,470.778 235.374,465.156 L235.374,465.156 Z" id="Fill-4" fill="#B76140"></path>
            <path d="M306.272,462.954 L350.315,462.954 C350.279,456.33 348.268,451.191 344.279,447.539 C340.292,443.887 334.973,442.061 328.32,442.061 C322.526,442.061 317.556,443.923 313.407,447.647 C309.259,451.371 306.88,456.474 306.272,462.954 L306.272,462.954 Z M300.687,465.156 C300.687,459.857 301.923,455.05 304.396,450.734 C306.869,446.42 310.212,443.072 314.423,440.691 C318.635,438.31 323.267,437.119 328.32,437.119 C331.426,437.119 334.372,437.495 337.156,438.247 C339.94,438.999 342.53,440.181 344.922,441.792 C347.313,443.403 349.33,445.391 350.973,447.754 C352.615,450.046 353.811,452.91 354.562,456.348 C355.061,458.604 355.311,461.003 355.311,463.545 C355.311,464.87 355.239,466.249 355.099,467.681 L306.272,467.681 C306.809,473.908 309.16,478.841 313.327,482.477 C317.493,486.112 322.491,487.93 328.32,487.93 C332.075,487.93 335.787,487.192 339.452,485.716 C343.118,484.24 345.935,482.206 347.901,479.613 L351.751,482.746 C349.213,486.051 345.808,488.601 341.536,490.395 C337.265,492.189 332.859,493.086 328.32,493.086 C323.194,493.086 318.554,491.977 314.396,489.756 C310.238,487.536 306.914,484.286 304.423,480.008 C301.932,475.729 300.687,470.778 300.687,465.156 L300.687,465.156 Z" id="Fill-5" fill="#B76140"></path>
            <polyline id="Fill-6" fill="#B76140" points="209.608 96.107 204.74 94.967 214.197 50.585 219.066 55.725 209.608 96.107"></polyline>
            <polyline id="Fill-7" fill="#B76140" points="206.656 94.826 185.166 38.315 190.836 39.527 211.326 93.039 206.656 94.826"></polyline>
            <polyline id="Fill-8" fill="#B76140" points="205.723 94.218 204.123 61.882 209.118 58.635 210.718 93.971 205.723 94.218"></polyline>
            <path d="M86.093,377.256 L207.744,92.756 L329.395,377.256 C329.395,377.256 274.895,387.256 208.02,387.256 C139.895,387.256 86.093,377.256 86.093,377.256" id="Fill-9" fill="#FBD8A3"></path>
            <path d="M218.209,264.446 C215.72,266.821 212.593,268.021 208.924,268.021 C205.254,268.021 202.128,266.821 199.639,264.446 C197.149,262.072 196.027,259.223 196.178,255.921 C196.329,252.619 197.695,249.83 200.184,247.529 C202.674,245.229 205.556,244.089 208.924,244.089 C212.292,244.089 215.174,245.229 217.663,247.529 C220.152,249.83 221.519,252.619 221.669,255.921 C221.82,259.223 220.698,262.072 218.209,264.446 M245.907,248.711 C245.603,248.401 245.238,248.228 244.809,248.192 C241.189,247.885 239.387,247.718 235.799,247.357 C235.167,245.887 234.363,244.392 233.397,242.872 C233.895,242.07 234.645,240.938 235.626,239.47 C236.608,238.003 237.284,236.931 237.675,236.254 C237.885,235.9 237.967,235.536 237.925,235.163 C237.876,234.729 237.731,234.393 237.488,234.155 C236.209,232.625 233.39,230.114 229.255,226.555 C228.874,226.257 228.491,226.115 228.106,226.129 C227.661,226.144 227.315,226.296 227.068,226.585 C224.682,228.667 223.463,229.702 220.975,231.758 C219.701,231.13 218.319,230.579 216.828,230.102 C216.215,226.67 215.917,224.954 215.338,221.52 C215.298,221.115 215.122,220.783 214.812,220.521 C214.501,220.259 214.144,220.131 213.739,220.135 C209.886,220.169 207.959,220.169 204.106,220.135 C203.268,220.127 202.737,220.557 202.51,221.427 C202.091,222.979 201.587,225.871 200.972,230.101 C199.542,230.549 198.146,231.116 196.777,231.803 C194.362,229.748 193.179,228.714 190.863,226.635 C190.499,226.311 190.125,226.142 189.74,226.129 C189.087,226.106 187.61,227.169 185.222,229.299 C182.835,231.429 181.146,233.023 180.224,234.101 C179.903,234.491 179.724,234.841 179.689,235.151 C179.647,235.524 179.758,235.905 180.025,236.294 C181.816,238.916 183.289,241.136 184.393,242.963 C183.469,244.36 182.707,245.763 182.115,247.172 C178.471,247.532 176.641,247.697 172.965,248 C172.601,248.04 172.267,248.223 171.961,248.548 C171.655,248.873 171.476,249.222 171.425,249.594 C170.857,253.727 170.573,255.793 170.005,259.926 C169.949,260.33 170.034,260.703 170.261,261.045 C170.488,261.388 170.819,261.605 171.252,261.694 C174.913,262.422 176.753,262.773 180.45,263.447 C180.776,264.992 181.33,266.563 182.124,268.157 C181.428,268.908 180.387,269.964 178.981,271.32 C177.575,272.676 176.559,273.663 175.956,274.289 C175.634,274.617 175.452,274.966 175.41,275.339 C175.365,275.743 175.449,276.107 175.664,276.43 C176.869,278.179 179.532,280.942 183.859,284.66 C184.235,285.018 184.68,285.206 185.194,285.224 C185.744,285.243 186.214,285.119 186.6,284.851 C189.845,282.956 191.443,281.998 194.588,280.064 C196.037,280.751 197.642,281.358 199.403,281.882 C199.905,285.33 200.165,287.054 200.701,290.501 C200.728,290.906 200.934,291.244 201.32,291.513 C201.706,291.783 202.163,291.919 202.687,291.924 C207.677,291.969 210.172,291.969 215.161,291.924 C216.249,291.914 216.912,291.47 217.151,290.594 C217.595,289.03 218.053,286.127 218.5,281.881 C220.19,281.389 221.814,280.766 223.366,280.016 C226.448,281.969 228.013,282.936 231.194,284.853 C231.727,285.116 232.215,285.239 232.655,285.223 C233.461,285.195 235.111,284.03 237.516,281.709 C239.923,279.389 241.509,277.621 242.343,276.422 C242.63,276.095 242.75,275.729 242.704,275.325 C242.658,274.922 242.437,274.541 242.041,274.187 C239.187,271.583 237.119,269.519 235.762,268.015 C236.349,266.835 236.887,265.39 237.369,263.682 C241.108,262.988 242.968,262.626 246.67,261.877 C247.069,261.79 247.383,261.566 247.607,261.208 C247.832,260.849 247.917,260.484 247.866,260.112 C247.298,255.979 247.014,253.913 246.446,249.78 C246.391,249.377 246.212,249.021 245.907,248.711" id="Fill-10" fill="#ED962D"></path>
            <path d="M206.586,150.911 C214.749,150.911 222.524,149.563 229.678,147.183 L208.208,96.974 L186.363,148.064 C192.715,149.88 199.501,150.911 206.586,150.911" id="Fill-11" fill="#6AC1BA"></path>
            <path d="M113.395,381.154 C113.292,381.154 113.187,381.138 113.083,381.104 C112.558,380.931 112.272,380.366 112.445,379.842 L188.357,148.604 C189.003,148.77 189.653,148.927 190.307,149.076 L114.345,380.465 C114.207,380.887 113.815,381.154 113.395,381.154" id="Fill-12" fill="#F6CF9A"></path>
            <polyline id="Fill-13" fill="#FDF5F0" points="203.212 103.355 205.878 95.234 205.998 95.262 206.112 95.893 205.868 97.145 203.212 103.355"></polyline>
            <polyline id="Fill-14" fill="#B76140" points="205.998 95.262 205.878 95.234 205.952 95.009 205.998 95.262"></polyline>
            <path d="M206.687,92.771 L206.79,92.455 C206.779,92.49 206.77,92.527 206.763,92.564 L206.723,92.77 C206.711,92.77 206.699,92.77 206.687,92.771" id="Fill-15" fill="#B76140"></path>
            <polyline id="Fill-16" fill="#F6CF9A" points="195.716 126.189 203.212 103.355 205.868 97.145 203.959 106.912 195.716 126.189"></polyline>
            <path d="M208.723,92.963 L208.726,92.948 C208.745,92.848 208.749,92.75 208.739,92.654 C208.75,92.755 208.745,92.859 208.723,92.963 M208.739,92.652 L208.739,92.649 L208.739,92.652 M208.629,92.289 C208.628,92.288 208.627,92.287 208.627,92.286 C208.627,92.287 208.628,92.288 208.629,92.289 M208.626,92.285 C208.547,92.137 208.431,92.01 208.289,91.917 C208.433,92.01 208.548,92.138 208.626,92.285 M206.941,92.159 C206.942,92.159 206.942,92.158 206.943,92.158 C206.942,92.158 206.942,92.159 206.941,92.159 M206.946,92.153 C207.015,92.062 207.099,91.984 207.192,91.922 C207.098,91.984 207.015,92.062 206.946,92.153 M207.193,91.921 C207.194,91.921 207.196,91.92 207.197,91.919 C207.196,91.92 207.194,91.921 207.193,91.921 M207.203,91.915 C207.203,91.915 207.203,91.915 207.204,91.914 L207.203,91.915 M207.972,91.782 C207.96,91.779 207.948,91.777 207.936,91.774 C207.871,91.762 207.807,91.756 207.743,91.756 C207.723,91.756 207.703,91.756 207.683,91.758 C207.703,91.756 207.724,91.756 207.744,91.756 C207.819,91.756 207.896,91.764 207.972,91.782 M207.675,91.758 L207.676,91.758 L207.675,91.758" id="Fill-17" fill="#B76140"></path>
            <path d="M190.307,149.076 C189.653,148.927 189.003,148.77 188.357,148.604 L195.716,126.189 L203.959,106.912 L203.678,108.348 L190.307,149.076" id="Fill-18" fill="#6EBAAF"></path>
            <path d="M150.777,385.25 C150.713,385.25 150.649,385.244 150.584,385.232 C150.392,385.194 150.223,385.103 150.09,384.978 C150.507,385.01 150.924,385.042 151.343,385.074 C151.18,385.186 150.983,385.25 150.777,385.25" id="Fill-19" fill="#FDF5F0"></path>
            <path d="M151.343,385.074 C150.924,385.042 150.507,385.01 150.09,384.978 C149.849,384.75 149.726,384.408 149.795,384.058 L173.618,262.161 C174.307,262.296 174.947,262.42 175.581,262.542 L151.757,384.442 C151.705,384.709 151.551,384.93 151.343,385.074 M176.443,247.706 L195.524,150.068 C196.182,150.169 196.843,150.261 197.508,150.345 L181.38,232.869 C180.913,233.336 180.527,233.746 180.224,234.101 C179.903,234.491 179.724,234.841 179.689,235.151 C179.647,235.524 179.758,235.905 180.025,236.294 C180.206,236.558 180.384,236.819 180.558,237.076 L178.517,247.519 C177.819,247.584 177.147,247.644 176.443,247.706" id="Fill-20" fill="#F6CF9A"></path>
            <path d="M175.581,262.542 C174.947,262.42 174.307,262.296 173.618,262.161 L176.443,247.706 C177.147,247.644 177.819,247.584 178.517,247.519 L175.581,262.542 M180.558,237.076 C180.384,236.819 180.206,236.558 180.025,236.294 C179.758,235.905 179.647,235.524 179.689,235.151 C179.724,234.841 179.903,234.491 180.224,234.101 C180.527,233.746 180.913,233.336 181.38,232.869 L180.558,237.076" id="Fill-21" fill="#EC932D"></path>
            <polyline id="Fill-22" fill="#F6CF9A" points="204.78 104.992 206.657 99.273 206.636 100.652 204.78 104.992"></polyline>
            <path d="M208.649,93.342 C208.64,93.324 208.631,93.307 208.622,93.289 L208.694,93.068 C208.706,93.033 208.715,92.998 208.723,92.963 L208.649,93.342 M208.739,92.654 L208.739,92.652 L208.739,92.654 M208.739,92.649 C208.725,92.522 208.687,92.4 208.629,92.289 C208.687,92.4 208.725,92.522 208.739,92.649 M206.79,92.455 C206.825,92.346 206.876,92.247 206.941,92.159 C206.879,92.244 206.829,92.339 206.794,92.444 L206.79,92.455 M208.627,92.286 L208.626,92.285 L208.627,92.286 M206.943,92.158 C206.944,92.156 206.945,92.155 206.946,92.153 C206.945,92.155 206.944,92.156 206.943,92.158 M207.192,91.922 C207.193,91.922 207.193,91.922 207.193,91.921 C207.193,91.922 207.193,91.922 207.192,91.922 M207.197,91.919 C207.199,91.918 207.201,91.917 207.203,91.915 C207.201,91.917 207.199,91.918 207.197,91.919 M208.289,91.917 C208.218,91.871 208.14,91.833 208.056,91.806 C208.028,91.797 208,91.789 207.972,91.782 C208.087,91.809 208.194,91.855 208.289,91.917 M207.204,91.914 C207.343,91.825 207.504,91.77 207.675,91.758 C207.506,91.77 207.344,91.825 207.204,91.914 M207.676,91.758 L207.683,91.758 L207.676,91.758" id="Fill-23" fill="#B76140"></path>
            <path d="M197.508,150.345 C196.843,150.261 196.182,150.169 195.524,150.068 L203.678,108.348 L204.78,104.992 L206.636,100.652 L206.584,103.904 L197.508,150.345" id="Fill-24" fill="#6EBAAF"></path>
            <polyline id="Fill-25" fill="#F7E7DD" points="205.868 97.145 206.112 95.893 206.199 96.371 205.868 97.145"></polyline>
            <path d="M208.622,93.289 C208.454,92.985 208.133,92.776 207.76,92.77 L207.75,92.77 L207.744,92.756 L207.738,92.77 C207.559,92.771 207.39,92.819 207.244,92.904 C207.126,92.835 206.993,92.791 206.853,92.775 C206.853,92.775 206.853,92.775 206.852,92.775 L206.845,92.775 C206.811,92.771 206.778,92.769 206.744,92.769 C206.737,92.769 206.73,92.77 206.723,92.77 L206.763,92.564 C206.77,92.527 206.779,92.49 206.79,92.455 L206.794,92.444 C206.829,92.339 206.879,92.244 206.941,92.159 C206.942,92.159 206.942,92.158 206.943,92.158 C206.944,92.156 206.945,92.155 206.946,92.153 C207.015,92.062 207.098,91.984 207.192,91.922 C207.193,91.922 207.193,91.922 207.193,91.921 C207.194,91.921 207.196,91.92 207.197,91.919 C207.199,91.918 207.201,91.917 207.203,91.915 C207.203,91.915 207.203,91.915 207.204,91.914 C207.344,91.825 207.506,91.77 207.675,91.758 L207.676,91.758 L207.683,91.758 C207.703,91.756 207.723,91.756 207.743,91.756 C207.807,91.756 207.871,91.762 207.936,91.774 C207.948,91.777 207.96,91.779 207.972,91.782 C208,91.789 208.028,91.797 208.056,91.806 C208.14,91.833 208.218,91.871 208.289,91.917 C208.431,92.01 208.547,92.137 208.626,92.285 L208.627,92.286 C208.627,92.287 208.628,92.288 208.629,92.289 C208.687,92.4 208.725,92.522 208.739,92.649 L208.739,92.652 L208.739,92.654 C208.749,92.75 208.745,92.848 208.726,92.948 L208.723,92.963 C208.715,92.998 208.706,93.033 208.694,93.068 L208.622,93.289" id="Fill-26" fill="#B76140"></path>
            <path d="M203.959,106.912 L205.868,97.145 L206.199,96.371 L206.663,98.935 L206.657,99.273 L204.78,104.992 L203.959,106.912 M207.75,92.77 L207.744,92.77 L207.738,92.77 L207.744,92.756 L207.75,92.77" id="Fill-27" fill="#F2C792"></path>
            <polyline id="Fill-28" fill="#74B1A5" points="203.678 108.348 203.959 106.912 204.78 104.992 203.678 108.348"></polyline>
            <path d="M203.142,386.678 L203.126,386.678 C202.574,386.669 202.133,386.215 202.142,385.662 L203.619,291.932 C204.33,291.938 204.991,291.943 205.62,291.947 L204.141,385.694 C204.133,386.241 203.687,386.678 203.142,386.678 M206.001,267.745 C205.313,267.609 204.649,267.424 204.01,267.188 L204.361,244.893 C205.009,244.647 205.678,244.458 206.37,244.325 L206.001,267.745 M206.752,220.155 C206.132,220.151 205.476,220.146 204.751,220.14 L205.843,150.908 C206.091,150.91 206.338,150.911 206.586,150.911 C207.006,150.911 207.426,150.908 207.844,150.901 L206.752,220.155" id="Fill-29" fill="#F6CF9A"></path>
            <path d="M205.62,291.947 C204.991,291.943 204.33,291.938 203.619,291.932 L204.01,267.188 C204.649,267.424 205.313,267.609 206.001,267.745 L205.62,291.947 M204.361,244.893 L204.751,220.14 C205.476,220.146 206.132,220.151 206.752,220.155 L206.37,244.325 C205.678,244.458 205.009,244.647 204.361,244.893" id="Fill-30" fill="#EC932D"></path>
            <polyline id="Fill-31" fill="#B76140" points="208.724 95.048 208.444 94.391 208.496 94.122 208.618 94.075 208.74 94.069 208.724 95.048"></polyline>
            <polyline id="Fill-32" fill="#B76140" points="208.496 94.122 208.504 94.081 208.618 94.075 208.496 94.122"></polyline>
            <path d="M208.504,94.081 L208.649,93.342 C208.712,93.476 208.747,93.627 208.744,93.786 L208.74,94.069 L208.618,94.075 L208.504,94.081" id="Fill-33" fill="#B76140"></path>
            <polyline id="Fill-34" fill="#F6CF9A" points="208.7 96.61 208.272 95.269 208.444 94.391 208.724 95.048 208.7 96.61"></polyline>
            <path d="M206.586,150.911 C206.338,150.911 206.091,150.91 205.843,150.908 L206.584,103.904 L207.092,101.307 L208.503,109.104 L207.844,150.901 C207.426,150.908 207.006,150.911 206.586,150.911" id="Fill-35" fill="#6EBAAF"></path>
            <polyline id="Fill-36" fill="#B76140" points="208.444 94.391 208.352 94.177 208.496 94.122 208.444 94.391"></polyline>
            <polyline id="Fill-37" fill="#B76140" points="208.352 94.177 208.34 94.148 208.359 94.088 208.504 94.081 208.496 94.122 208.352 94.177"></polyline>
            <path d="M208.359,94.088 L208.622,93.289 C208.631,93.307 208.64,93.324 208.649,93.342 L208.504,94.081 L208.359,94.088" id="Fill-38" fill="#B76140"></path>
            <path d="M206.636,100.652 L206.657,99.273 L206.7,99.142 L206.873,100.097 L206.636,100.652 M208.272,95.269 L208.124,94.805 L208.34,94.148 L208.352,94.177 L208.444,94.391 L208.272,95.269" id="Fill-39" fill="#F2C792"></path>
            <polyline id="Fill-40" fill="#74B1A5" points="206.584 103.904 206.636 100.652 206.873 100.097 207.092 101.307 206.584 103.904"></polyline>
            <polyline id="Fill-41" fill="#B76140" points="208.34 94.148 208.315 94.09 208.359 94.088 208.34 94.148"></polyline>
            <path d="M208.315,94.09 L207.75,92.77 L207.76,92.77 C208.133,92.776 208.454,92.985 208.622,93.289 L208.359,94.088 L208.315,94.09 M207.559,93.189 C207.481,93.08 207.382,92.988 207.27,92.919 C207.268,92.918 207.266,92.917 207.265,92.916 C207.264,92.915 207.264,92.915 207.263,92.915 C207.257,92.911 207.251,92.907 207.244,92.904 C207.39,92.819 207.559,92.771 207.738,92.77 L207.559,93.189" id="Fill-42" fill="#B76140"></path>
            <path d="M206.657,99.273 L206.663,98.935 L206.7,99.142 L206.657,99.273 M208.124,94.805 L207.701,93.477 C207.672,93.384 207.631,93.298 207.58,93.22 C207.573,93.21 207.566,93.2 207.559,93.189 L207.738,92.77 L207.744,92.77 L207.75,92.77 L208.315,94.09 L208.34,94.148 L208.124,94.805" id="Fill-43" fill="#EBBE8A"></path>
            <path d="M298.061,381.154 C297.638,381.154 297.244,380.882 297.109,380.457 L223.301,148.986 C223.954,148.833 224.602,148.672 225.246,148.502 L299.014,379.85 C299.182,380.376 298.891,380.938 298.365,381.106 C298.264,381.138 298.162,381.154 298.061,381.154 M210.597,102.56 L208.677,98.069 L208.7,96.61 L210.597,102.56" id="Fill-44" fill="#F6CF9A"></path>
            <path d="M223.301,148.986 L210.471,108.748 L208.666,98.772 L208.677,98.069 L210.597,102.56 L225.246,148.502 C224.602,148.672 223.954,148.833 223.301,148.986" id="Fill-45" fill="#6EBAAF"></path>
            <polyline id="Fill-46" fill="#F2C792" points="208.677 98.069 208.437 97.509 208.147 95.907 208.272 95.269 208.7 96.61 208.677 98.069"></polyline>
            <polyline id="Fill-47" fill="#74B1A5" points="208.666 98.772 208.437 97.509 208.677 98.069 208.666 98.772"></polyline>
            <polyline id="Fill-48" fill="#EBBE8A" points="208.147 95.907 208.01 95.151 208.124 94.805 208.272 95.269 208.147 95.907"></polyline>
            <path d="M208.01,95.151 L207.728,93.592 C207.721,93.552 207.712,93.514 207.701,93.477 L208.124,94.805 L208.01,95.151" id="Fill-49" fill="#E6B684"></path>
            <path d="M205.763,93.961 C205.742,93.856 205.739,93.75 205.751,93.648 C205.739,93.745 205.742,93.846 205.76,93.948 L205.763,93.961 M205.864,93.295 C205.864,93.295 205.864,93.295 205.864,93.294 L205.864,93.295 M205.866,93.291 C205.948,93.141 206.068,93.012 206.218,92.919 C206.069,93.011 205.949,93.14 205.866,93.291" id="Fill-50" fill="#B76140"></path>
            <path d="M207.559,93.189 C207.481,93.08 207.383,92.989 207.27,92.919 C207.382,92.988 207.481,93.08 207.559,93.189" id="Fill-51" fill="#B76140"></path>
            <path d="M207.58,93.22 C207.573,93.21 207.566,93.2 207.559,93.189 C207.566,93.2 207.573,93.21 207.58,93.22" id="Fill-52" fill="#E6B684"></path>
            <path d="M207.265,92.916 C207.264,92.915 207.264,92.915 207.263,92.915 C207.264,92.915 207.264,92.915 207.265,92.916" id="Fill-53" fill="#B76140"></path>
            <path d="M206.493,92.802 C206.558,92.785 206.622,92.775 206.687,92.771 C206.647,92.774 206.607,92.778 206.566,92.786 C206.542,92.79 206.517,92.796 206.493,92.802" id="Fill-54" fill="#B76140"></path>
            <path d="M206.687,92.771 L206.687,92.771 C206.699,92.77 206.711,92.77 206.723,92.77 C206.711,92.77 206.699,92.771 206.687,92.771" id="Fill-55" fill="#B76140"></path>
            <path d="M206.853,92.775 C206.853,92.775 206.853,92.775 206.852,92.775 L206.853,92.775 M206.845,92.775 C206.812,92.771 206.779,92.77 206.745,92.77 L206.723,92.77 C206.73,92.77 206.737,92.769 206.744,92.769 C206.778,92.769 206.811,92.771 206.845,92.775" id="Fill-56" fill="#B76140"></path>
            <polyline id="Fill-57" fill="#B76140" points="205.952 95.009 205.808 94.214 205.836 94.213 206.022 94.796 205.952 95.009"></polyline>
            <path d="M205.808,94.214 L205.763,93.961 C205.77,93.999 205.78,94.036 205.791,94.073 L205.836,94.213 L205.808,94.214" id="Fill-58" fill="#B76140"></path>
            <path d="M259.302,385.25 C258.828,385.25 258.407,384.911 258.319,384.428 L239.395,279.84 C240.053,279.162 240.618,278.547 241.094,277.998 L260.287,384.072 C260.386,384.615 260.025,385.136 259.481,385.234 C259.421,385.245 259.361,385.25 259.302,385.25 M240.075,272.363 C239.145,271.483 238.324,270.681 237.607,269.957 L236.801,265.5 C236.998,264.931 237.187,264.325 237.369,263.682 C237.753,263.61 238.118,263.543 238.467,263.477 L240.075,272.363 M235.385,246.442 C234.828,245.268 234.163,244.078 233.397,242.872 C233.671,242.431 234.021,241.889 234.445,241.247 L235.385,246.442 M232.258,229.162 C231.518,228.511 230.713,227.812 229.846,227.064 L215.959,150.313 C216.623,150.228 217.284,150.134 217.94,150.031 L232.258,229.162" id="Fill-59" fill="#F6CF9A"></path>
            <path d="M239.395,279.84 L237.607,269.957 C238.324,270.681 239.145,271.483 240.075,272.363 L241.094,277.998 C240.618,278.547 240.053,279.162 239.395,279.84 M236.801,265.5 L229.846,227.064 C230.713,227.812 231.518,228.511 232.258,229.162 L234.445,241.247 C234.021,241.889 233.671,242.431 233.397,242.872 C234.163,244.078 234.828,245.268 235.385,246.442 L238.467,263.477 C238.118,263.543 237.753,263.61 237.369,263.682 C237.187,264.325 236.998,264.931 236.801,265.5" id="Fill-60" fill="#EC932D"></path>
            <path d="M215.959,150.313 L208.503,109.104 L208.601,102.883 L210.471,108.748 L217.94,150.031 C217.284,150.134 216.623,150.228 215.959,150.313" id="Fill-61" fill="#6EBAAF"></path>
            <polyline id="Fill-62" fill="#F7E7DD" points="206.112 95.893 205.998 95.262 206.184 95.306 206.211 95.389 206.112 95.893"></polyline>
            <polyline id="Fill-63" fill="#B76140" points="206.184 95.306 205.998 95.262 205.952 95.009 206.022 94.796 206.184 95.306"></polyline>
            <polyline id="Fill-64" fill="#F2DBCD" points="206.199 96.371 206.112 95.893 206.211 95.389 206.385 95.935 206.199 96.371"></polyline>
            <polyline id="Fill-65" fill="#EBBE8A" points="206.663 98.935 206.199 96.371 206.385 95.935 206.695 96.906 206.663 98.935"></polyline>
            <polyline id="Fill-66" fill="#74B1A5" points="208.503 109.104 207.092 101.307 207.474 99.351 208.601 102.883 208.503 109.104"></polyline>
            <polyline id="Fill-67" fill="#EBBE8A" points="206.873 100.097 206.7 99.142 207.059 98.049 207.354 98.973 206.873 100.097"></polyline>
            <polyline id="Fill-68" fill="#78AB9C" points="207.092 101.307 206.873 100.097 207.354 98.973 207.474 99.351 207.092 101.307"></polyline>
            <polyline id="Fill-69" fill="#E6B684" points="206.7 99.142 206.663 98.935 206.695 96.906 207.059 98.049 206.7 99.142"></polyline>
            <path d="M205.751,93.648 C205.767,93.523 205.806,93.403 205.864,93.295 C205.805,93.404 205.767,93.523 205.751,93.648" id="Fill-70" fill="#B76140"></path>
            <path d="M207.701,93.477 L207.697,93.466 C207.669,93.377 207.629,93.295 207.58,93.22 C207.631,93.298 207.672,93.384 207.701,93.477" id="Fill-71" fill="#E6B684"></path>
            <path d="M205.864,93.294 C205.865,93.293 205.866,93.292 205.866,93.291 C205.866,93.292 205.865,93.293 205.864,93.294 M206.218,92.919 C206.3,92.869 206.39,92.829 206.488,92.803 C206.472,92.807 206.456,92.812 206.44,92.817 C206.36,92.842 206.286,92.877 206.218,92.919" id="Fill-72" fill="#B76140"></path>
            <path d="M207.27,92.919 C207.268,92.918 207.266,92.917 207.265,92.916 C207.266,92.917 207.268,92.918 207.27,92.919" id="Fill-73" fill="#B76140"></path>
            <path d="M207.244,92.904 C207.125,92.835 206.992,92.791 206.853,92.775 C206.993,92.791 207.126,92.835 207.244,92.904" id="Fill-74" fill="#B76140"></path>
            <path d="M207.263,92.915 C207.257,92.911 207.25,92.907 207.244,92.904 C207.251,92.907 207.257,92.911 207.263,92.915" id="Fill-75" fill="#B76140"></path>
            <path d="M206.488,92.803 C206.49,92.802 206.492,92.802 206.493,92.802 C206.492,92.802 206.49,92.802 206.488,92.803" id="Fill-76" fill="#B76140"></path>
            <path d="M206.852,92.775 L206.845,92.775 L206.852,92.775" id="Fill-77" fill="#B76140"></path>
            <polyline id="Fill-78" fill="#B76140" points="206.022 94.796 205.836 94.213 206.22 94.194 206.022 94.796"></polyline>
            <path d="M205.836,94.213 L205.791,94.073 C205.78,94.036 205.77,93.999 205.763,93.961 L205.76,93.948 C205.742,93.846 205.739,93.745 205.751,93.648 C205.767,93.523 205.805,93.404 205.864,93.295 C205.864,93.295 205.864,93.295 205.864,93.294 C205.865,93.293 205.866,93.292 205.866,93.291 C205.949,93.14 206.069,93.011 206.218,92.919 C206.286,92.877 206.36,92.842 206.44,92.817 C206.456,92.812 206.472,92.807 206.488,92.803 C206.49,92.802 206.492,92.802 206.493,92.802 C206.517,92.796 206.542,92.79 206.566,92.786 C206.607,92.778 206.647,92.774 206.687,92.771 L206.22,94.194 L205.836,94.213" id="Fill-79" fill="#B76140"></path>
            <polyline id="Fill-80" fill="#74B1A5" points="210.471 108.748 208.601 102.883 208.666 98.772 210.471 108.748"></polyline>
            <polyline id="Fill-81" fill="#F2DBCD" points="206.211 95.389 206.184 95.306 206.225 95.315 206.211 95.389"></polyline>
            <polyline id="Fill-82" fill="#B76140" points="206.225 95.315 206.184 95.306 206.022 94.796 206.22 94.194 206.412 94.184 206.435 94.244 206.225 95.315"></polyline>
            <polyline id="Fill-83" fill="#B76140" points="206.435 94.244 206.412 94.184 206.447 94.182 206.435 94.244"></polyline>
            <path d="M206.22,94.194 L206.687,92.771 C206.699,92.771 206.711,92.77 206.723,92.77 L206.447,94.182 L206.412,94.184 L206.22,94.194" id="Fill-84" fill="#B76140"></path>
            <polyline id="Fill-85" fill="#EDD1C1" points="206.385 95.935 206.211 95.389 206.225 95.315 206.611 95.406 206.385 95.935"></polyline>
            <polyline id="Fill-86" fill="#B76140" points="206.611 95.406 206.225 95.315 206.435 94.244 206.656 94.826 206.728 94.799 206.722 95.146 206.611 95.406"></polyline>
            <polyline id="Fill-87" fill="#B76140" points="206.656 94.826 206.435 94.244 206.447 94.182 206.738 94.168 206.728 94.799 206.656 94.826"></polyline>
            <path d="M206.447,94.182 L206.723,92.77 L206.745,92.77 C206.779,92.77 206.812,92.771 206.845,92.775 L206.852,92.775 L206.853,92.775 C206.992,92.791 207.125,92.835 207.244,92.904 C206.95,93.074 206.75,93.389 206.744,93.754 L206.738,94.168 L206.447,94.182" id="Fill-88" fill="#B76140"></path>
            <polyline id="Fill-89" fill="#E6B684" points="206.695 96.906 206.385 95.935 206.722 95.146 206.695 96.906"></polyline>
            <polyline id="Fill-90" fill="#EBBE8A" points="207.712 98.135 208.147 95.907 208.437 97.509 208.208 96.974 207.712 98.135"></polyline>
            <polyline id="Fill-91" fill="#78AB9C" points="208.601 102.883 207.474 99.351 207.712 98.135 208.208 96.974 208.437 97.509 208.666 98.772 208.601 102.883"></polyline>
            <polyline id="Fill-92" fill="#E6B684" points="207.354 98.973 207.059 98.049 208.01 95.151 208.147 95.907 207.712 98.135 207.354 98.973"></polyline>
            <polyline id="Fill-93" fill="#7CA495" points="207.474 99.351 207.354 98.973 207.712 98.135 207.474 99.351"></polyline>
            <polyline id="Fill-94" fill="#B76140" points="206.722 95.146 206.728 94.799 206.899 94.733 206.722 95.146"></polyline>
            <polyline id="Fill-95" fill="#B76140" points="206.728 94.799 206.738 94.168 207.149 94.148 206.899 94.733 206.728 94.799"></polyline>
            <path d="M206.738,94.168 L206.744,93.754 C206.75,93.389 206.95,93.074 207.244,92.904 C207.25,92.907 207.257,92.911 207.263,92.915 C207.264,92.915 207.264,92.915 207.265,92.916 C207.266,92.917 207.268,92.918 207.27,92.919 C207.383,92.989 207.481,93.08 207.559,93.189 L207.149,94.148 L206.738,94.168" id="Fill-96" fill="#B76140"></path>
            <path d="M207.059,98.049 L206.695,96.906 L206.722,95.146 L206.899,94.733 L207.149,94.148 L207.559,93.189 C207.566,93.2 207.573,93.21 207.58,93.22 C207.629,93.295 207.669,93.377 207.697,93.466 L207.701,93.477 C207.712,93.514 207.721,93.552 207.728,93.592 L208.01,95.151 L207.059,98.049" id="Fill-97" fill="#E3AF7E"></path>
            <path d="M96.472,356.528 C102.85,352.212 106.024,349.996 112.213,345.543 C113.109,344.898 113.313,343.648 112.668,342.751 C112.023,341.855 110.773,341.651 109.877,342.296 C103.7,346.74 100.595,348.907 94.23,353.215 C93.316,353.834 93.076,355.078 93.695,355.993 C94.314,356.907 95.558,357.147 96.472,356.528" id="Fill-98" fill="#FFFFFF"></path>
            <path d="M109.486,345.173 C114.263,351.115 116.729,354.095 121.718,359.955 C122.434,360.796 123.696,360.898 124.537,360.182 C125.378,359.466 125.479,358.203 124.763,357.362 C119.785,351.514 117.372,348.597 112.604,342.666 C111.911,341.805 110.652,341.669 109.792,342.361 C108.931,343.053 108.794,344.312 109.486,345.173" id="Fill-99" fill="#FFFFFF"></path>
            <path d="M124.426,360.27 C130.625,355.709 133.707,353.373 139.714,348.683 C140.584,348.004 140.739,346.747 140.059,345.876 C139.38,345.006 138.123,344.851 137.252,345.531 C131.257,350.21 128.242,352.496 122.055,357.048 C121.166,357.702 120.975,358.954 121.63,359.844 C122.284,360.734 123.536,360.924 124.426,360.27" id="Fill-100" fill="#FFFFFF"></path>
            <path d="M136.973,348.419 C141.97,354.171 144.546,357.055 149.751,362.717 C150.499,363.53 151.764,363.584 152.577,362.836 C153.391,362.089 153.444,360.823 152.696,360.01 C147.501,354.358 144.98,351.537 139.993,345.795 C139.268,344.961 138.005,344.873 137.171,345.597 C136.337,346.321 136.248,347.585 136.973,348.419" id="Fill-101" fill="#FFFFFF"></path>
            <path d="M124.426,360.27 C130.625,355.709 133.707,353.373 139.714,348.683 C140.584,348.004 140.739,346.747 140.059,345.876 C139.38,345.006 138.123,344.851 137.252,345.531 C131.257,350.21 128.242,352.496 122.055,357.048 C121.166,357.702 120.975,358.954 121.63,359.844 C122.284,360.734 123.536,360.924 124.426,360.27" id="Fill-102" fill="#FFFFFF"></path>
            <path d="M136.973,348.419 C141.97,354.171 144.546,357.055 149.751,362.717 C150.499,363.53 151.764,363.584 152.577,362.836 C153.391,362.089 153.444,360.823 152.696,360.01 C147.501,354.358 144.98,351.537 139.993,345.795 C139.268,344.961 138.005,344.873 137.171,345.597 C136.337,346.321 136.248,347.585 136.973,348.419" id="Fill-103" fill="#FFFFFF"></path>
            <path d="M152.471,362.927 C158.484,358.131 161.472,355.677 167.289,350.759 C168.132,350.046 168.238,348.784 167.525,347.941 C166.812,347.097 165.55,346.992 164.707,347.705 C158.901,352.612 155.978,355.013 149.977,359.8 C149.113,360.489 148.971,361.747 149.66,362.611 C150.349,363.474 151.607,363.616 152.471,362.927" id="Fill-104" fill="#FFFFFF"></path>
            <path d="M164.539,350.6 C169.75,356.156 172.433,358.938 177.85,364.396 C178.628,365.18 179.895,365.184 180.679,364.406 C181.463,363.628 181.467,362.362 180.689,361.578 C175.283,356.13 172.657,353.408 167.456,347.864 C166.701,347.058 165.435,347.018 164.629,347.773 C163.824,348.529 163.783,349.795 164.539,350.6" id="Fill-105" fill="#FFFFFF"></path>
            <path d="M152.471,362.927 C158.484,358.131 161.472,355.677 167.289,350.759 C168.132,350.046 168.238,348.784 167.525,347.941 C166.812,347.097 165.55,346.992 164.707,347.705 C158.901,352.612 155.978,355.013 149.977,359.8 C149.113,360.489 148.971,361.747 149.66,362.611 C150.349,363.474 151.607,363.616 152.471,362.927" id="Fill-106" fill="#FFFFFF"></path>
            <path d="M164.539,350.6 C169.75,356.156 172.433,358.938 177.85,364.396 C178.628,365.18 179.895,365.184 180.679,364.406 C181.463,363.628 181.467,362.362 180.689,361.578 C175.283,356.13 172.657,353.408 167.456,347.864 C166.701,347.058 165.435,347.018 164.629,347.773 C163.824,348.529 163.783,349.795 164.539,350.6" id="Fill-107" fill="#FFFFFF"></path>
            <path d="M180.577,364.501 C186.398,359.476 189.287,356.909 194.908,351.771 C195.724,351.026 195.78,349.761 195.035,348.945 C194.29,348.13 193.025,348.073 192.21,348.818 C186.599,353.946 183.772,356.458 177.963,361.473 C177.127,362.195 177.034,363.457 177.756,364.294 C178.478,365.13 179.741,365.222 180.577,364.501" id="Fill-108" fill="#FFFFFF"></path>
            <path d="M192.154,351.718 C197.573,357.069 200.361,359.745 205.983,364.99 C206.79,365.744 208.056,365.7 208.809,364.892 C209.563,364.084 209.519,362.819 208.712,362.065 C203.101,356.83 200.373,354.211 194.964,348.871 C194.178,348.095 192.912,348.103 192.136,348.889 C191.36,349.675 191.368,350.942 192.154,351.718" id="Fill-109" fill="#FFFFFF"></path>
            <path d="M180.577,364.501 C186.398,359.476 189.287,356.909 194.908,351.771 C195.724,351.026 195.78,349.761 195.035,348.945 C194.29,348.13 193.025,348.073 192.21,348.818 C186.599,353.946 183.772,356.458 177.963,361.473 C177.127,362.195 177.034,363.457 177.756,364.294 C178.478,365.13 179.741,365.222 180.577,364.501" id="Fill-110" fill="#FFFFFF"></path>
            <path d="M192.154,351.718 C197.573,357.069 200.361,359.745 205.983,364.99 C206.79,365.744 208.056,365.7 208.809,364.892 C209.563,364.084 209.519,362.819 208.712,362.065 C203.101,356.83 200.373,354.211 194.964,348.871 C194.178,348.095 192.912,348.103 192.136,348.889 C191.36,349.675 191.368,350.942 192.154,351.718" id="Fill-111" fill="#FFFFFF"></path>
            <path d="M208.712,364.99 C214.334,359.745 217.122,357.069 222.541,351.718 C223.327,350.942 223.335,349.675 222.559,348.889 C221.783,348.103 220.516,348.095 219.73,348.871 C214.322,354.211 211.594,356.83 205.983,362.065 C205.175,362.819 205.131,364.084 205.885,364.892 C206.638,365.7 207.904,365.744 208.712,364.99" id="Fill-112" fill="#FFFFFF"></path>
            <path d="M219.786,351.771 C225.407,356.909 228.297,359.476 234.118,364.501 C234.954,365.222 236.217,365.13 236.938,364.294 C237.66,363.457 237.568,362.195 236.731,361.473 C230.922,356.458 228.095,353.946 222.485,348.818 C221.669,348.073 220.404,348.13 219.659,348.945 C218.914,349.761 218.971,351.026 219.786,351.771" id="Fill-113" fill="#FFFFFF"></path>
            <path d="M208.712,364.99 C214.334,359.745 217.122,357.069 222.541,351.718 C223.327,350.942 223.335,349.675 222.559,348.889 C221.783,348.103 220.516,348.095 219.73,348.871 C214.322,354.211 211.594,356.83 205.983,362.065 C205.175,362.819 205.131,364.084 205.885,364.892 C206.638,365.7 207.904,365.744 208.712,364.99" id="Fill-114" fill="#FFFFFF"></path>
            <path d="M219.786,351.771 C225.407,356.909 228.297,359.476 234.118,364.501 C234.954,365.222 236.217,365.13 236.938,364.294 C237.66,363.457 237.568,362.195 236.731,361.473 C230.922,356.458 228.095,353.946 222.485,348.818 C221.669,348.073 220.404,348.13 219.659,348.945 C218.914,349.761 218.971,351.026 219.786,351.771" id="Fill-115" fill="#FFFFFF"></path>
            <path d="M236.844,364.396 C242.261,358.938 244.944,356.156 250.155,350.6 C250.911,349.795 250.87,348.529 250.065,347.773 C249.259,347.018 247.994,347.058 247.238,347.864 C242.037,353.408 239.411,356.13 234.005,361.578 C233.227,362.362 233.232,363.628 234.016,364.406 C234.8,365.184 236.066,365.18 236.844,364.396" id="Fill-116" fill="#FFFFFF"></path>
            <path d="M247.405,350.759 C253.222,355.677 256.21,358.131 262.223,362.927 C263.087,363.616 264.345,363.474 265.034,362.611 C265.723,361.747 265.581,360.489 264.718,359.8 C258.716,355.013 255.793,352.612 249.988,347.705 C249.144,346.992 247.882,347.097 247.169,347.941 C246.456,348.784 246.562,350.046 247.405,350.759" id="Fill-117" fill="#FFFFFF"></path>
            <path d="M236.844,364.396 C242.261,358.938 244.944,356.156 250.155,350.6 C250.911,349.795 250.87,348.529 250.065,347.773 C249.259,347.018 247.994,347.058 247.238,347.864 C242.037,353.408 239.411,356.13 234.005,361.578 C233.227,362.362 233.232,363.628 234.016,364.406 C234.8,365.184 236.066,365.18 236.844,364.396" id="Fill-118" fill="#FFFFFF"></path>
            <path d="M247.405,350.759 C253.222,355.677 256.21,358.131 262.223,362.927 C263.087,363.616 264.345,363.474 265.034,362.611 C265.723,361.747 265.581,360.489 264.718,359.8 C258.716,355.013 255.793,352.612 249.988,347.705 C249.144,346.992 247.882,347.097 247.169,347.941 C246.456,348.784 246.562,350.046 247.405,350.759" id="Fill-119" fill="#FFFFFF"></path>
            <path d="M264.943,362.717 C270.149,357.054 272.725,354.171 277.721,348.419 C278.446,347.585 278.357,346.321 277.523,345.597 C276.689,344.873 275.426,344.961 274.702,345.795 C269.714,351.537 267.194,354.358 261.998,360.01 C261.251,360.823 261.304,362.089 262.117,362.836 C262.93,363.584 264.195,363.53 264.943,362.717" id="Fill-120" fill="#FFFFFF"></path>
            <path d="M274.981,348.683 C280.987,353.373 284.07,355.709 290.269,360.27 C291.158,360.924 292.41,360.734 293.065,359.844 C293.719,358.954 293.529,357.702 292.639,357.048 C286.452,352.496 283.437,350.21 277.442,345.53 C276.572,344.851 275.315,345.006 274.635,345.876 C273.955,346.747 274.11,348.004 274.981,348.683" id="Fill-121" fill="#FFFFFF"></path>
            <path d="M264.943,362.717 C270.149,357.054 272.725,354.171 277.721,348.419 C278.446,347.585 278.357,346.321 277.523,345.597 C276.689,344.873 275.426,344.961 274.702,345.795 C269.714,351.537 267.194,354.358 261.998,360.01 C261.251,360.823 261.304,362.089 262.117,362.836 C262.93,363.584 264.195,363.53 264.943,362.717" id="Fill-122" fill="#FFFFFF"></path>
            <path d="M274.981,348.683 C280.987,353.373 284.07,355.709 290.269,360.27 C291.158,360.924 292.41,360.734 293.065,359.844 C293.719,358.954 293.529,357.702 292.639,357.048 C286.452,352.496 283.437,350.21 277.442,345.53 C276.572,344.851 275.315,345.006 274.635,345.876 C273.955,346.747 274.11,348.004 274.981,348.683" id="Fill-123" fill="#FFFFFF"></path>
            <path d="M292.977,359.955 C297.965,354.095 300.431,351.115 305.208,345.172 C305.9,344.312 305.764,343.053 304.903,342.361 C304.042,341.668 302.783,341.805 302.091,342.666 C297.323,348.596 294.91,351.513 289.931,357.362 C289.215,358.203 289.316,359.466 290.157,360.182 C290.999,360.898 292.261,360.796 292.977,359.955" id="Fill-124" fill="#FFFFFF"></path>
            <path d="M302.481,345.543 C308.67,349.996 311.844,352.212 318.222,356.528 C319.137,357.147 320.38,356.907 320.999,355.993 C321.618,355.078 321.379,353.835 320.464,353.215 C314.099,348.907 310.994,346.74 304.818,342.296 C303.921,341.651 302.671,341.855 302.026,342.751 C301.381,343.648 301.585,344.898 302.481,345.543" id="Fill-125" fill="#FFFFFF"></path>
            <path d="M96.472,346.528 C102.85,342.212 106.024,339.996 112.213,335.543 C113.109,334.898 113.313,333.648 112.668,332.751 C112.023,331.855 110.773,331.651 109.877,332.296 C103.7,336.74 100.595,338.907 94.23,343.215 C93.316,343.834 93.076,345.078 93.695,345.993 C94.314,346.907 95.558,347.147 96.472,346.528" id="Fill-126" fill="#FFFFFF"></path>
            <path d="M109.486,335.173 C114.263,341.115 116.729,344.095 121.718,349.955 C122.434,350.796 123.696,350.898 124.537,350.182 C125.378,349.466 125.479,348.203 124.763,347.362 C119.785,341.514 117.372,338.597 112.604,332.666 C111.911,331.805 110.652,331.669 109.792,332.361 C108.931,333.053 108.794,334.312 109.486,335.173" id="Fill-127" fill="#FFFFFF"></path>
            <path d="M124.426,350.27 C130.625,345.709 133.707,343.373 139.714,338.683 C140.584,338.004 140.739,336.747 140.059,335.876 C139.38,335.006 138.123,334.851 137.252,335.531 C131.257,340.21 128.242,342.496 122.055,347.048 C121.166,347.702 120.975,348.954 121.63,349.844 C122.284,350.734 123.536,350.924 124.426,350.27" id="Fill-128" fill="#FFFFFF"></path>
            <path d="M136.973,338.419 C141.97,344.171 144.546,347.055 149.751,352.717 C150.499,353.53 151.764,353.584 152.577,352.836 C153.391,352.089 153.444,350.823 152.696,350.01 C147.501,344.358 144.98,341.537 139.993,335.795 C139.268,334.961 138.005,334.873 137.171,335.597 C136.337,336.321 136.248,337.585 136.973,338.419" id="Fill-129" fill="#FFFFFF"></path>
            <path d="M124.426,350.27 C130.625,345.709 133.707,343.373 139.714,338.683 C140.584,338.004 140.739,336.747 140.059,335.876 C139.38,335.006 138.123,334.851 137.252,335.531 C131.257,340.21 128.242,342.496 122.055,347.048 C121.166,347.702 120.975,348.954 121.63,349.844 C122.284,350.734 123.536,350.924 124.426,350.27" id="Fill-130" fill="#FFFFFF"></path>
            <path d="M136.973,338.419 C141.97,344.171 144.546,347.055 149.751,352.717 C150.499,353.53 151.764,353.584 152.577,352.836 C153.391,352.089 153.444,350.823 152.696,350.01 C147.501,344.358 144.98,341.537 139.993,335.795 C139.268,334.961 138.005,334.873 137.171,335.597 C136.337,336.321 136.248,337.585 136.973,338.419" id="Fill-131" fill="#FFFFFF"></path>
            <path d="M152.471,352.927 C158.484,348.131 161.472,345.677 167.289,340.759 C168.132,340.046 168.238,338.784 167.525,337.941 C166.812,337.097 165.55,336.992 164.707,337.705 C158.901,342.612 155.978,345.013 149.977,349.8 C149.113,350.489 148.971,351.747 149.66,352.611 C150.349,353.474 151.607,353.616 152.471,352.927" id="Fill-132" fill="#FFFFFF"></path>
            <path d="M164.539,340.6 C169.75,346.156 172.433,348.938 177.85,354.396 C178.628,355.18 179.895,355.184 180.679,354.406 C181.463,353.628 181.467,352.362 180.689,351.578 C175.283,346.13 172.657,343.408 167.456,337.864 C166.701,337.058 165.435,337.018 164.629,337.773 C163.824,338.529 163.783,339.795 164.539,340.6" id="Fill-133" fill="#FFFFFF"></path>
            <path d="M152.471,352.927 C158.484,348.131 161.472,345.677 167.289,340.759 C168.132,340.046 168.238,338.784 167.525,337.941 C166.812,337.097 165.55,336.992 164.707,337.705 C158.901,342.612 155.978,345.013 149.977,349.8 C149.113,350.489 148.971,351.747 149.66,352.611 C150.349,353.474 151.607,353.616 152.471,352.927" id="Fill-134" fill="#FFFFFF"></path>
            <path d="M164.539,340.6 C169.75,346.156 172.433,348.938 177.85,354.396 C178.628,355.18 179.895,355.184 180.679,354.406 C181.463,353.628 181.467,352.362 180.689,351.578 C175.283,346.13 172.657,343.408 167.456,337.864 C166.701,337.058 165.435,337.018 164.629,337.773 C163.824,338.529 163.783,339.795 164.539,340.6" id="Fill-135" fill="#FFFFFF"></path>
            <path d="M180.577,354.501 C186.398,349.476 189.287,346.909 194.908,341.771 C195.724,341.026 195.78,339.761 195.035,338.945 C194.29,338.13 193.025,338.073 192.21,338.818 C186.599,343.946 183.772,346.458 177.963,351.473 C177.127,352.195 177.034,353.457 177.756,354.294 C178.478,355.13 179.741,355.222 180.577,354.501" id="Fill-136" fill="#FFFFFF"></path>
            <path d="M192.154,341.718 C197.573,347.069 200.361,349.745 205.983,354.99 C206.79,355.744 208.056,355.7 208.809,354.892 C209.563,354.084 209.519,352.819 208.712,352.065 C203.101,346.83 200.373,344.211 194.964,338.871 C194.178,338.095 192.912,338.103 192.136,338.889 C191.36,339.675 191.368,340.942 192.154,341.718" id="Fill-137" fill="#FFFFFF"></path>
            <path d="M180.577,354.501 C186.398,349.476 189.287,346.909 194.908,341.771 C195.724,341.026 195.78,339.761 195.035,338.945 C194.29,338.13 193.025,338.073 192.21,338.818 C186.599,343.946 183.772,346.458 177.963,351.473 C177.127,352.195 177.034,353.457 177.756,354.294 C178.478,355.13 179.741,355.222 180.577,354.501" id="Fill-138" fill="#FFFFFF"></path>
            <path d="M192.154,341.718 C197.573,347.069 200.361,349.745 205.983,354.99 C206.79,355.744 208.056,355.7 208.809,354.892 C209.563,354.084 209.519,352.819 208.712,352.065 C203.101,346.83 200.373,344.211 194.964,338.871 C194.178,338.095 192.912,338.103 192.136,338.889 C191.36,339.675 191.368,340.942 192.154,341.718" id="Fill-139" fill="#FFFFFF"></path>
            <path d="M208.712,354.99 C214.334,349.745 217.122,347.069 222.541,341.718 C223.327,340.942 223.335,339.675 222.559,338.889 C221.783,338.103 220.516,338.095 219.73,338.871 C214.322,344.211 211.594,346.83 205.983,352.065 C205.175,352.819 205.131,354.084 205.885,354.892 C206.638,355.7 207.904,355.744 208.712,354.99" id="Fill-140" fill="#FFFFFF"></path>
            <path d="M219.786,341.771 C225.407,346.909 228.297,349.476 234.118,354.501 C234.954,355.222 236.217,355.13 236.938,354.294 C237.66,353.457 237.568,352.195 236.731,351.473 C230.922,346.458 228.095,343.946 222.485,338.818 C221.669,338.073 220.404,338.13 219.659,338.945 C218.914,339.761 218.971,341.026 219.786,341.771" id="Fill-141" fill="#FFFFFF"></path>
            <path d="M208.712,354.99 C214.334,349.745 217.122,347.069 222.541,341.718 C223.327,340.942 223.335,339.675 222.559,338.889 C221.783,338.103 220.516,338.095 219.73,338.871 C214.322,344.211 211.594,346.83 205.983,352.065 C205.175,352.819 205.131,354.084 205.885,354.892 C206.638,355.7 207.904,355.744 208.712,354.99" id="Fill-142" fill="#FFFFFF"></path>
            <path d="M219.786,341.771 C225.407,346.909 228.297,349.476 234.118,354.501 C234.954,355.222 236.217,355.13 236.938,354.294 C237.66,353.457 237.568,352.195 236.731,351.473 C230.922,346.458 228.095,343.946 222.485,338.818 C221.669,338.073 220.404,338.13 219.659,338.945 C218.914,339.761 218.971,341.026 219.786,341.771" id="Fill-143" fill="#FFFFFF"></path>
            <path d="M236.844,354.396 C242.261,348.938 244.944,346.156 250.155,340.6 C250.911,339.795 250.87,338.529 250.065,337.773 C249.259,337.018 247.994,337.058 247.238,337.864 C242.037,343.408 239.411,346.13 234.005,351.578 C233.227,352.362 233.232,353.628 234.016,354.406 C234.8,355.184 236.066,355.18 236.844,354.396" id="Fill-144" fill="#FFFFFF"></path>
            <path d="M247.405,340.759 C253.222,345.677 256.21,348.131 262.223,352.927 C263.087,353.616 264.345,353.474 265.034,352.611 C265.723,351.747 265.581,350.489 264.718,349.8 C258.716,345.013 255.793,342.612 249.988,337.705 C249.144,336.992 247.882,337.097 247.169,337.941 C246.456,338.784 246.562,340.046 247.405,340.759" id="Fill-145" fill="#FFFFFF"></path>
            <path d="M236.844,354.396 C242.261,348.938 244.944,346.156 250.155,340.6 C250.911,339.795 250.87,338.529 250.065,337.773 C249.259,337.018 247.994,337.058 247.238,337.864 C242.037,343.408 239.411,346.13 234.005,351.578 C233.227,352.362 233.232,353.628 234.016,354.406 C234.8,355.184 236.066,355.18 236.844,354.396" id="Fill-146" fill="#FFFFFF"></path>
            <path d="M247.405,340.759 C253.222,345.677 256.21,348.131 262.223,352.927 C263.087,353.616 264.345,353.474 265.034,352.611 C265.723,351.747 265.581,350.489 264.718,349.8 C258.716,345.013 255.793,342.612 249.988,337.705 C249.144,336.992 247.882,337.097 247.169,337.941 C246.456,338.784 246.562,340.046 247.405,340.759" id="Fill-147" fill="#FFFFFF"></path>
            <path d="M264.943,352.717 C270.149,347.054 272.725,344.171 277.721,338.419 C278.446,337.585 278.357,336.321 277.523,335.597 C276.689,334.873 275.426,334.961 274.702,335.795 C269.714,341.537 267.194,344.358 261.998,350.01 C261.251,350.823 261.304,352.089 262.117,352.836 C262.93,353.584 264.195,353.53 264.943,352.717" id="Fill-148" fill="#FFFFFF"></path>
            <path d="M274.981,338.683 C280.987,343.373 284.07,345.709 290.269,350.27 C291.158,350.924 292.41,350.734 293.065,349.844 C293.719,348.954 293.529,347.702 292.639,347.048 C286.452,342.496 283.437,340.21 277.442,335.53 C276.572,334.851 275.315,335.006 274.635,335.876 C273.955,336.747 274.11,338.004 274.981,338.683" id="Fill-149" fill="#FFFFFF"></path>
            <path d="M264.943,352.717 C270.149,347.054 272.725,344.171 277.721,338.419 C278.446,337.585 278.357,336.321 277.523,335.597 C276.689,334.873 275.426,334.961 274.702,335.795 C269.714,341.537 267.194,344.358 261.998,350.01 C261.251,350.823 261.304,352.089 262.117,352.836 C262.93,353.584 264.195,353.53 264.943,352.717" id="Fill-150" fill="#FFFFFF"></path>
            <path d="M274.981,338.683 C280.987,343.373 284.07,345.709 290.269,350.27 C291.158,350.924 292.41,350.734 293.065,349.844 C293.719,348.954 293.529,347.702 292.639,347.048 C286.452,342.496 283.437,340.21 277.442,335.53 C276.572,334.851 275.315,335.006 274.635,335.876 C273.955,336.747 274.11,338.004 274.981,338.683" id="Fill-151" fill="#FFFFFF"></path>
            <path d="M292.977,349.955 C297.965,344.095 300.431,341.115 305.208,335.172 C305.9,334.312 305.764,333.053 304.903,332.361 C304.042,331.668 302.783,331.805 302.091,332.666 C297.323,338.596 294.91,341.513 289.931,347.362 C289.215,348.203 289.316,349.466 290.157,350.182 C290.999,350.898 292.261,350.796 292.977,349.955" id="Fill-152" fill="#FFFFFF"></path>
            <path d="M302.481,335.543 C308.67,339.996 311.844,342.212 318.222,346.528 C319.137,347.147 320.38,346.907 320.999,345.993 C321.618,345.078 321.379,343.835 320.464,343.215 C314.099,338.907 310.994,336.74 304.818,332.296 C303.921,331.651 302.671,331.855 302.026,332.751 C301.381,333.648 301.585,334.898 302.481,335.543" id="Fill-153" fill="#FFFFFF"></path>
            <path d="M136.885,314.574 C133.396,318.699 131.619,320.747 127.999,324.807 C123.823,321.192 121.773,319.361 117.751,315.658 C119.258,313.914 120.006,313.039 121.491,311.284 C125.803,311.101 127.951,310.984 132.233,310.702 C134.079,312.26 135.009,313.035 136.885,314.574" id="Fill-154" fill="#E0542D"></path>
            <path d="M163.302,317.786 C160.055,322.102 158.398,324.246 155.018,328.504 C150.654,325.131 148.51,323.419 144.295,319.95 C145.699,318.123 146.396,317.208 147.776,315.371 C152.062,314.945 154.196,314.707 158.447,314.183 C160.375,315.634 161.345,316.355 163.302,317.786" id="Fill-155" fill="#E0542D"></path>
            <path d="M189.822,319.505 C186.826,323.996 185.293,326.23 182.161,330.672 C177.62,327.55 175.385,325.962 170.989,322.735 C172.287,320.833 172.93,319.879 174.204,317.967 C178.452,317.3 180.568,316.943 184.778,316.18 C186.782,317.521 187.79,318.186 189.822,319.505" id="Fill-156" fill="#E0542D"></path>
            <path d="M216.384,319.731 C213.645,324.383 212.24,326.7 209.364,331.311 C204.656,328.448 202.337,326.988 197.769,324.014 C198.957,322.041 199.545,321.053 200.709,319.073 C204.911,318.168 207.002,317.692 211.162,316.695 C213.237,317.921 214.281,318.528 216.384,319.731" id="Fill-157" fill="#E0542D"></path>
            <path d="M242.923,318.463 C240.448,323.262 239.176,325.654 236.561,330.42 C231.698,327.827 229.299,326.499 224.572,323.786 C225.647,321.75 226.178,320.73 227.229,318.688 C231.375,317.548 233.437,316.956 237.536,315.726 C239.678,316.833 240.755,317.381 242.923,318.463" id="Fill-158" fill="#E0542D"></path>
            <path d="M269.377,315.703 C267.172,320.634 266.034,323.094 263.688,328 C258.681,325.685 256.209,324.494 251.333,322.052 C252.293,319.958 252.767,318.91 253.702,316.812 C257.781,315.441 259.809,314.733 263.838,313.274 C266.041,314.259 267.149,314.745 269.377,315.703" id="Fill-159" fill="#E0542D"></path>
            <path d="M295.683,311.45 C293.753,316.499 292.752,319.019 290.68,324.05 C285.541,322.023 283.002,320.974 277.988,318.811 C278.831,316.666 279.246,315.593 280.064,313.445 C284.067,311.845 286.055,311.024 290.004,309.338 C292.264,310.197 293.4,310.619 295.683,311.45" id="Fill-160" fill="#E0542D"></path>
            <polyline id="Fill-161" fill="#B76140" points="87.407 378.539 81.811 378.568 223.082 48.973 229.678 46.943 87.407 378.539"></polyline>
            <polyline id="Fill-162" fill="#B76140" points="328.082 378.539 327.097 377.241 196.531 72.621 203.127 71.651 334.677 378.568 328.082 378.539"></polyline>
            <polyline id="Fill-163" fill="#CB8A71" points="110.545 380.986 117.199 368.05 117.199 381.711 110.545 380.986"></polyline>
            <polyline id="Fill-164" fill="#CB8A71" points="147.011 384.735 153.395 372.05 153.517 385.303 147.011 384.735"></polyline>
            <polyline id="Fill-165" fill="#CB8A71" points="200.011 387.256 203.679 374.05 207.347 387.256 200.011 387.256"></polyline>
            <polyline id="Fill-166" fill="#CB8A71" points="301.272 381.367 294.395 368.05 294.278 382.2 301.272 381.367"></polyline>
            <polyline id="Fill-167" fill="#CB8A71" points="263.247 385.132 257.005 372.341 256.741 385.592 263.247 385.132"></polyline>
        </g>
    </g>
</svg>